<svg width="12" height="13" viewBox="0 0 12 13" fill="none" xmlns="http://www.w3.org/2000/svg">
<path d="M8.33858 5.41459C6.02362 7.90979 3.75591 10.3551 1.27559 13C0.779528 12.3512 0.448819 12.0518 0 11.4779C2.33858 9.05758 4.67717 6.46257 7.20472 3.84261C5.26772 3.46833 3.80315 2.86948 2.71654 1.17274C3.09449 0.848369 3.47244 0.49904 3.92126 0.0998081C6.09449 2.27063 8.3622 2.52015 10.7717 0C11.1496 0.474088 11.5039 0.898273 11.9055 1.39731C9.68504 3.79271 9.77953 6.1881 12 8.6334C11.5984 9.03263 11.2441 9.40691 10.8898 9.75624C9.59055 8.83301 9.49606 8.70825 8.33858 5.41459Z" fill="white"/>
</svg>
