<svg width="21" height="20" viewBox="0 0 21 20" fill="none" xmlns="http://www.w3.org/2000/svg">
<path d="M10.4688 1.875C7.53906 1.875 4.88281 3.4375 3.39844 5.9375C1.95312 8.47656 1.95312 11.5625 3.39844 14.0625C4.88281 16.6016 7.53906 18.125 10.4688 18.125C13.3594 18.125 16.0156 16.6016 17.5 14.0625C18.9453 11.5625 18.9453 8.47656 17.5 5.9375C16.0156 3.4375 13.3594 1.875 10.4688 1.875ZM10.4688 20C6.875 20 3.59375 18.125 1.79688 15C0 11.9141 0 8.125 1.79688 5C3.59375 1.91406 6.875 0 10.4688 0C14.0234 0 17.3047 1.91406 19.1016 5C20.8984 8.125 20.8984 11.9141 19.1016 15C17.3047 18.125 14.0234 20 10.4688 20ZM14.8828 8.16406L9.88281 13.1641C9.49219 13.5547 8.90625 13.5547 8.55469 13.1641L6.05469 10.6641C5.66406 10.3125 5.66406 9.72656 6.05469 9.375C6.40625 8.98438 6.99219 8.98438 7.38281 9.375L9.21875 11.2109L13.5547 6.875C13.9062 6.48438 14.4922 6.48438 14.8828 6.875C15.2344 7.22656 15.2344 7.8125 14.8828 8.16406Z" fill="#C10016"/>
</svg>
